<?xml version="1.0" encoding="UTF-8" standalone="no"?>
<!-- Uploaded to: SVG Repo, www.svgrepo.com, Generator: SVG Repo Mixer Tools -->

<svg
   fill="#000000"
   version="1.1"
   id="Capa_1"
   width="800px"
   height="800px"
   viewBox="0 0 548.291 548.291"
   xml:space="preserve"
   sodipodi:docname="log-icon.svg"
   inkscape:version="1.1.2 (0a00cf5339, 2022-02-04)"
   xmlns:inkscape="http://www.inkscape.org/namespaces/inkscape"
   xmlns:sodipodi="http://sodipodi.sourceforge.net/DTD/sodipodi-0.dtd"
   xmlns="http://www.w3.org/2000/svg"
   xmlns:svg="http://www.w3.org/2000/svg"><defs
   id="defs33" /><sodipodi:namedview
   id="namedview31"
   pagecolor="#ffffff"
   bordercolor="#000000"
   borderopacity="0.25"
   inkscape:pageshadow="2"
   inkscape:pageopacity="0.0"
   inkscape:pagecheckerboard="0"
   showgrid="false"
   inkscape:zoom="0.3925"
   inkscape:cx="391.0828"
   inkscape:cy="521.01911"
   inkscape:window-width="1536"
   inkscape:window-height="800"
   inkscape:window-x="0"
   inkscape:window-y="27"
   inkscape:window-maximized="1"
   inkscape:current-layer="Capa_1" />
<g
   id="g28"
   style="fill:#800080">
	<g
   id="g6"
   style="fill:#800080">
		<path
   d="m 256.08,417.128 c -18.09,0 -28.625,17.209 -28.625,40.21 0,23.183 10.885,39.52 28.795,39.52 18.09,0 28.447,-17.209 28.447,-40.216 0.005,-21.25 -10.175,-39.514 -28.617,-39.514 z"
   id="path2"
   style="fill:#800080" />
		<path
   d="m 472.929,131.39 c -0.031,-2.514 -0.829,-4.997 -2.556,-6.96 L 364.656,3.677 C 364.635,3.643 364.603,3.633 364.572,3.602 363.942,2.898 363.218,2.318 362.44,1.806 362.21,1.657 361.978,1.523 361.737,1.387 361.054,1.022 360.35,0.72 359.616,0.499 359.416,0.441 359.239,0.36 359.039,0.308 358.231,0.113 357.411,0 356.572,0 H 96.757 C 84.904,0 75.255,9.649 75.255,21.502 V 526.79 c 0,11.858 9.649,21.501 21.502,21.501 h 354.775 c 11.863,0 21.503,-9.643 21.503,-21.501 V 132.595 c 10e-4,-0.404 -0.064,-0.8 -0.106,-1.205 z M 195.477,516.164 h -73.93 V 397.812 h 26.867 v 95.88 h 47.063 z m 59.376,1.937 c -35.124,0 -55.667,-26.515 -55.667,-60.226 0,-35.481 22.651,-61.996 57.596,-61.996 36.355,0 56.198,27.219 56.198,59.886 0,38.803 -23.528,62.336 -58.127,62.336 z m 174.58,-7.375 c -8.263,2.808 -23.884,6.672 -39.518,6.672 -21.596,0 -37.229,-5.443 -48.115,-15.979 -10.889,-10.188 -16.856,-25.643 -16.683,-43.028 0.177,-39.335 28.792,-61.817 67.611,-61.817 15.276,0 27.041,2.992 32.835,5.794 l -5.617,21.43 c -6.492,-2.814 -14.571,-5.093 -27.569,-5.093 -22.305,0 -39.161,12.647 -39.161,38.279 0,24.408 15.282,38.813 37.234,38.813 6.142,0 11.056,-0.704 13.166,-1.753 v -24.762 h -18.258 v -20.897 h 44.074 v 62.341 z M 96.757,365.081 V 21.502 H 345.82 v 110.011 c 0,5.935 4.81,10.751 10.752,10.751 h 94.961 l 0.011,222.816 H 96.757 Z"
   id="path4"
   style="fill:#800080" />
	</g>
	<g
   id="g26"
   style="fill:#800080">
		<path
   d="m 355.221,91.376 h -15.229 v 25.985 c 0,4.699 -3.81,8.509 -8.508,8.509 -4.705,0 -8.51,-3.811 -8.51,-8.509 V 91.376 h -26.878 v 25.985 c 0,4.699 -3.81,8.509 -8.508,8.509 -4.703,0 -8.51,-3.811 -8.51,-8.509 V 91.376 h -33.155 v 25.985 c 0,4.699 -3.811,8.509 -8.51,8.509 -4.703,0 -8.509,-3.811 -8.509,-8.509 V 91.376 h -26.877 v 25.985 c 0,4.699 -3.811,8.509 -8.51,8.509 -4.703,0 -8.509,-3.811 -8.509,-8.509 V 91.376 h -7.165 c -8.906,0 -16.126,7.218 -16.126,16.127 v 209.641 c 0,8.907 7.221,16.126 16.126,16.126 H 355.23 c 8.909,0 16.127,-7.219 16.127,-16.126 V 107.503 C 371.348,98.595 364.13,91.376 355.221,91.376 Z m 2.694,225.773 H 171.566 V 155.887 h 186.349 z"
   id="path8"
   style="fill:#800080" />
		<path
   d="m 202.023,88.689 c 0,-4.698 -3.811,-8.509 -8.51,-8.509 -4.703,0 -8.509,3.811 -8.509,8.509 v 2.688 h 17.024 v -2.688 z"
   id="path10"
   style="fill:#800080" />
		<path
   d="m 245.924,88.689 c 0,-4.698 -3.811,-8.509 -8.51,-8.509 -4.703,0 -8.509,3.811 -8.509,8.509 v 2.688 h 17.024 v -2.688 z"
   id="path12"
   style="fill:#800080" />
		<path
   d="m 296.092,88.689 c 0,-4.698 -3.811,-8.509 -8.508,-8.509 -4.705,0 -8.511,3.811 -8.511,8.509 v 2.688 h 17.023 v -2.688 z"
   id="path14"
   style="fill:#800080" />
		<path
   d="m 339.993,88.689 c 0,-4.698 -3.81,-8.509 -8.508,-8.509 -4.705,0 -8.51,3.811 -8.51,8.509 v 2.688 h 17.023 v -2.688 z"
   id="path16"
   style="fill:#800080" />
		<path
   d="m 193.514,186.795 h 137.971 c 1.485,0 2.688,-1.205 2.688,-2.688 0,-1.483 -1.202,-2.688 -2.688,-2.688 H 193.514 c -1.483,0 -2.688,1.205 -2.688,2.688 0,1.483 1.205,2.688 2.688,2.688 z"
   id="path18"
   style="fill:#800080" />
		<path
   d="m 193.514,218.15 h 137.971 c 1.485,0 2.688,-1.205 2.688,-2.688 0,-1.483 -1.202,-2.688 -2.688,-2.688 H 193.514 c -1.483,0 -2.688,1.205 -2.688,2.688 0,1.483 1.205,2.688 2.688,2.688 z"
   id="path20"
   style="fill:#800080" />
		<path
   d="m 193.514,254.885 h 137.971 c 1.485,0 2.688,-1.204 2.688,-2.688 0,-1.484 -1.202,-2.688 -2.688,-2.688 H 193.514 c -1.483,0 -2.688,1.205 -2.688,2.688 0,1.483 1.205,2.688 2.688,2.688 z"
   id="path22"
   style="fill:#800080" />
		<path
   d="m 193.514,286.241 h 137.971 c 1.485,0 2.688,-1.208 2.688,-2.688 0,-1.48 -1.202,-2.688 -2.688,-2.688 H 193.514 c -1.483,0 -2.688,1.207 -2.688,2.688 0,1.481 1.205,2.688 2.688,2.688 z"
   id="path24"
   style="fill:#800080" />
	</g>
</g>
</svg>
