<?xml version="1.0" encoding="UTF-8" standalone="no"?>
<!-- Created with Inkscape (http://www.inkscape.org/) -->

<svg
   version="1.1"
   id="svg2"
   width="1024"
   height="1024"
   viewBox="0 0 1024 1024"
   sodipodi:docname="F.svg"
   inkscape:version="1.2 (1:1.2.1+202207142221+cd75a1ee6d)"
   inkscape:export-filename="F.png"
   inkscape:export-xdpi="300"
   inkscape:export-ydpi="300"
   xmlns:inkscape="http://www.inkscape.org/namespaces/inkscape"
   xmlns:sodipodi="http://sodipodi.sourceforge.net/DTD/sodipodi-0.dtd"
   xmlns:xlink="http://www.w3.org/1999/xlink"
   xmlns="http://www.w3.org/2000/svg"
   xmlns:svg="http://www.w3.org/2000/svg">
  <defs
     id="defs6">
    <linearGradient
       inkscape:collect="always"
       id="linearGradient38994">
      <stop
         style="stop-color:#ffff00;stop-opacity:1;"
         offset="0"
         id="stop38990" />
      <stop
         style="stop-color:#fb931b;stop-opacity:1;"
         offset="1"
         id="stop38992" />
    </linearGradient>
    <linearGradient
       inkscape:collect="always"
       id="linearGradient34018">
      <stop
         style="stop-color:#ef0a49;stop-opacity:1;"
         offset="0"
         id="stop34014" />
      <stop
         style="stop-color:#e70d47;stop-opacity:1;"
         offset="1"
         id="stop34016" />
    </linearGradient>
    <linearGradient
       inkscape:collect="always"
       id="linearGradient29180">
      <stop
         style="stop-color:#f6b31a;stop-opacity:1;"
         offset="0"
         id="stop29176" />
      <stop
         style="stop-color:#f6b216;stop-opacity:1;"
         offset="1"
         id="stop29178" />
    </linearGradient>
    <linearGradient
       inkscape:collect="always"
       id="linearGradient25515">
      <stop
         style="stop-color:#4f4fa6;stop-opacity:1;"
         offset="0"
         id="stop25511" />
      <stop
         style="stop-color:#4e4ca6;stop-opacity:1;"
         offset="1"
         id="stop25513" />
    </linearGradient>
    <linearGradient
       inkscape:collect="always"
       id="linearGradient7561">
      <stop
         style="stop-color:#3176b2;stop-opacity:1;"
         offset="0"
         id="stop7559" />
      <stop
         style="stop-color:#52c885;stop-opacity:1;"
         offset="1"
         id="stop7557" />
    </linearGradient>
    <linearGradient
       inkscape:collect="always"
       id="linearGradient2102">
      <stop
         style="stop-color:#3c974f;stop-opacity:1;"
         offset="0"
         id="stop2098" />
      <stop
         style="stop-color:#b1d220;stop-opacity:1;"
         offset="1"
         id="stop2100" />
    </linearGradient>
    <linearGradient
       inkscape:collect="always"
       xlink:href="#linearGradient2102"
       id="linearGradient2104"
       x1="557.43555"
       y1="260.79428"
       x2="1009.1815"
       y2="260.79428"
       gradientUnits="userSpaceOnUse" />
    <linearGradient
       inkscape:collect="always"
       xlink:href="#linearGradient7561"
       id="linearGradient7563"
       x1="393.62305"
       y1="584.28028"
       x2="816.20853"
       y2="584.28028"
       gradientUnits="userSpaceOnUse" />
    <linearGradient
       inkscape:collect="always"
       xlink:href="#linearGradient25515"
       id="linearGradient25517"
       x1="373.15613"
       y1="418.11133"
       x2="546.72292"
       y2="418.11133"
       gradientUnits="userSpaceOnUse" />
    <linearGradient
       inkscape:collect="always"
       xlink:href="#linearGradient29180"
       id="linearGradient29182"
       x1="702.44141"
       y1="547.51074"
       x2="897.48815"
       y2="547.51074"
       gradientUnits="userSpaceOnUse" />
    <linearGradient
       inkscape:collect="always"
       xlink:href="#linearGradient34018"
       id="linearGradient34020"
       x1="193.89831"
       y1="803.26092"
       x2="423.58103"
       y2="803.26092"
       gradientUnits="userSpaceOnUse" />
    <linearGradient
       inkscape:collect="always"
       xlink:href="#linearGradient38994"
       id="linearGradient38996"
       x1="196.08003"
       y1="886.96856"
       x2="529.79688"
       y2="886.96856"
       gradientUnits="userSpaceOnUse" />
  </defs>
  <sodipodi:namedview
     id="namedview4"
     pagecolor="#505050"
     bordercolor="#eeeeee"
     borderopacity="1"
     inkscape:showpageshadow="0"
     inkscape:pageopacity="0"
     inkscape:pagecheckerboard="0"
     inkscape:deskcolor="#505050"
     showgrid="false"
     inkscape:zoom="0.3597682"
     inkscape:cx="643.46988"
     inkscape:cy="505.88129"
     inkscape:window-width="1366"
     inkscape:window-height="702"
     inkscape:window-x="0"
     inkscape:window-y="0"
     inkscape:window-maximized="1"
     inkscape:current-layer="svg2" />
  <g
     id="g2073"
     inkscape:label="Group"
     style="display:inline"
     transform="translate(-89.53993,-68.991849)">
    <path
       id="path1883"
       style="display:inline;opacity:1;fill:url(#linearGradient38996);fill-opacity:1;stroke-width:2;stroke-linecap:round;stroke-linejoin:round"
       d="m 196.08008,943.08789 c 23.0372,33.55914 223.56146,71.45221 333.7168,44.20899 -7.2638,-9.07996 -14.26537,-18.14646 -21.02735,-27.4336 -3.38099,-4.64357 -6.70223,-9.34127 -9.9668,-14.125 -3.26455,-4.78372 -6.47083,-9.65199 -9.625,-14.63476 -3.15415,-4.98279 -6.25491,-10.08154 -9.30468,-15.32227 -3.04978,-5.24073 -6.05054,-10.62406 -9.00196,-16.18164 -2.9514,-5.55759 -5.85382,-11.28931 -8.71289,-17.22266 -2.85906,-5.93334 -5.67453,-12.06949 -8.44726,-18.4375 -2.77275,-6.368 -5.50288,-12.96656 -8.19532,-19.82812 -2.69242,-6.86157 -5.34669,-13.98442 -7.96484,-21.39844 -2.61815,-7.41402 -5.20012,-15.11915 -7.75,-23.14453 -2.26301,-7.12252 -4.49137,-14.59993 -6.70508,-22.24805 0.18375,3.60755 0.40522,7.0847 0.45899,11.12891 0.0411,3.09277 0.0355,6.29868 -0.0274,9.60156 -0.0629,3.30289 -0.18386,6.702 -0.375,10.17578 -0.19113,3.47379 -0.45128,7.02344 -0.79492,10.62891 -0.34364,3.60547 -0.77061,7.26691 -1.29101,10.96484 -0.5204,3.69794 -1.13406,7.43241 -1.85547,11.1836 -0.72141,3.75118 -1.54942,7.51798 -2.4961,11.2832 -0.94667,3.76521 -2.01279,7.52755 -3.20898,11.26758 -1.19619,3.74003 -2.52222,7.45914 -3.99219,11.13476 -1.46996,3.67563 -3.08357,7.30886 -4.85156,10.88086 -1.76799,3.57201 -3.69098,7.08255 -5.78125,10.51172 -1.04513,1.71458 -2.13147,3.40856 -3.26172,5.08008 -1.13025,1.67152 -2.30504,3.3198 -3.52344,4.94336 -1.2184,1.62355 -2.48143,3.22228 -3.79101,4.79297 -1.30958,1.57069 -2.66457,3.11403 -4.06836,4.62695 -1.40379,1.51292 -2.85639,2.99507 -4.35742,4.44531 -1.50104,1.45025 -3.05104,2.86928 -4.65235,4.25196 -1.60131,1.38267 -3.25437,2.72886 -4.95898,4.03906 -1.70462,1.3102 -3.46053,2.58358 -5.27149,3.8164 -1.81095,1.23283 -3.67538,2.42564 -5.5957,3.57618 -1.92032,1.15054 -3.89696,2.2589 -5.92969,3.32226 -2.03272,1.06336 -4.12332,2.08146 -6.27148,3.05274 -2.14816,0.97127 -4.35447,1.89524 -6.6211,2.76953 -2.26662,0.87428 -4.59234,1.6983 -6.98046,2.4707 -2.38812,0.7724 -4.83892,1.4926 -7.35157,2.1582 -2.51264,0.66561 -5.0883,1.27812 -7.72851,1.83204 -2.64021,0.55391 -5.34444,1.05096 -8.11524,1.48828 -2.7708,0.43732 -5.60729,0.81504 -8.51172,1.13086 -2.90442,0.31582 -5.87689,0.56839 -8.91796,0.75781 -3.04108,0.18942 -6.15127,0.31493 -9.33204,0.37305 -3.18076,0.0581 -6.43237,0.0488 -9.75585,-0.0293 -3.32349,-0.0781 -6.71827,-0.22417 -10.1875,-0.44336 -3.46924,-0.21919 -7.01285,-0.51175 -10.63086,-0.87695 -3.61802,-0.3652 -7.31026,-0.80421 -11.08008,-1.32032 -3.76983,-0.51611 -7.61635,-1.10932 -11.54102,-1.78125 -3.92467,-0.67192 -7.92722,-1.42127 -12.00976,-2.2539 -4.08255,-0.83264 -8.24483,-1.74784 -12.48828,-2.7461 -3.22662,-0.75904 -6.546,-1.6134 -9.86719,-2.4707 z"
       inkscape:label="6" />
    <path
       id="path2061"
       style="display:inline;opacity:1;fill:url(#linearGradient34020);fill-opacity:1;stroke-width:2;stroke-linecap:round;stroke-linejoin:round"
       d="m 196.08008,943.08789 c 3.32119,0.8573 6.64057,1.71166 9.86719,2.4707 4.24345,0.99826 8.40573,1.91346 12.48828,2.7461 4.08254,0.83263 8.08509,1.58198 12.00976,2.2539 3.92467,0.67193 7.77119,1.26514 11.54102,1.78125 3.76982,0.51611 7.46206,0.95512 11.08008,1.32032 3.61801,0.3652 7.16162,0.65776 10.63086,0.87695 3.46923,0.21919 6.86401,0.36527 10.1875,0.44336 3.32348,0.0781 6.57509,0.0874 9.75585,0.0293 3.18077,-0.0581 6.29096,-0.18363 9.33204,-0.37305 3.04107,-0.18942 6.01354,-0.44199 8.91796,-0.75781 2.90443,-0.31582 5.74092,-0.69354 8.51172,-1.13086 2.7708,-0.43732 5.47503,-0.93437 8.11524,-1.48828 2.64021,-0.55392 5.21587,-1.16643 7.72851,-1.83204 2.51265,-0.6656 4.96345,-1.3858 7.35157,-2.1582 2.38812,-0.7724 4.71384,-1.59642 6.98046,-2.4707 2.26663,-0.87429 4.47294,-1.79826 6.6211,-2.76953 2.14816,-0.97128 4.23876,-1.98938 6.27148,-3.05274 2.03273,-1.06336 4.00937,-2.17172 5.92969,-3.32226 1.92032,-1.15054 3.78475,-2.34335 5.5957,-3.57618 1.81096,-1.23282 3.56687,-2.5062 5.27149,-3.8164 1.70461,-1.3102 3.35767,-2.65639 4.95898,-4.03906 1.60131,-1.38268 3.15131,-2.80171 4.65235,-4.25196 1.50103,-1.45024 2.95363,-2.93239 4.35742,-4.44531 1.40379,-1.51292 2.75878,-3.05626 4.06836,-4.62695 1.30958,-1.57069 2.57261,-3.16942 3.79101,-4.79297 1.2184,-1.62356 2.39319,-3.27184 3.52344,-4.94336 1.13025,-1.67152 2.21659,-3.3655 3.26172,-5.08008 2.09027,-3.42917 4.01326,-6.93971 5.78125,-10.51172 1.76799,-3.572 3.3816,-7.20523 4.85156,-10.88086 1.46997,-3.67562 2.796,-7.39473 3.99219,-11.13476 1.19619,-3.74003 2.26231,-7.50237 3.20898,-11.26758 0.94668,-3.76522 1.77469,-7.53202 2.4961,-11.2832 0.72141,-3.75119 1.33507,-7.48566 1.85547,-11.1836 0.5204,-3.69793 0.94737,-7.35937 1.29101,-10.96484 0.34364,-3.60547 0.60379,-7.15512 0.79492,-10.62891 0.19114,-3.47378 0.31212,-6.87289 0.375,-10.17578 0.0629,-3.30288 0.0685,-6.50879 0.0274,-9.60156 -0.0538,-4.04421 -0.27524,-7.52136 -0.45899,-11.12891 -0.28061,-0.96949 -0.56974,-1.84204 -0.84961,-2.82031 -2.48762,-8.69565 -4.94554,-17.7412 -7.37695,-27.16602 -2.43141,-9.42481 -4.83755,-19.22852 -7.21875,-29.4414 -2.3812,-10.21288 -4.73721,-20.83468 -7.07422,-31.89453 -2.33701,-11.05985 -4.65429,-22.55772 -6.95312,-34.52344 -24.9786,96.76467 -62.93647,229.08415 -178.82032,268.81836 -19.43952,6.66541 -24.34703,14.60169 -18.72265,22.79492 z"
       inkscape:label="5" />
    <path
       id="path1874"
       style="display:inline;opacity:1;fill:url(#linearGradient29182);fill-opacity:1;stroke-width:2;stroke-linecap:round;stroke-linejoin:round"
       d="m 702.44141,501.16602 c 1.53128,1.41797 3.16199,2.83895 4.98632,4.28515 2.03684,1.61465 4.25142,3.25618 6.63086,4.94336 2.37945,1.68718 4.92492,3.41964 7.62305,5.21875 2.69813,1.79911 5.55008,3.6648 8.54297,5.61524 5.98577,3.90087 12.5354,8.14411 19.55664,12.88671 3.51062,2.37131 7.13944,4.86698 10.87305,7.50782 3.7336,2.64083 7.5732,5.42523 11.50586,8.375 1.837,1.37788 3.59924,2.78315 5.29101,4.21093 1.69177,1.42779 3.31304,2.87792 4.86524,4.34961 1.55219,1.4717 3.03483,2.96501 4.45312,4.47461 1.4183,1.50961 2.77244,3.03661 4.0625,4.57813 1.29006,1.54151 2.51611,3.09663 3.68359,4.66406 1.16749,1.56743 2.27559,3.14703 3.32618,4.73438 1.05058,1.58734 2.04503,3.18389 2.98437,4.78515 0.93935,1.60127 1.82443,3.20722 2.65821,4.81641 0.83377,1.60919 1.61573,3.22092 2.3496,4.83203 0.73387,1.61111 1.41897,3.22109 2.0586,4.82812 0.63963,1.60704 1.23409,3.21163 1.78515,4.8086 0.55106,1.59696 1.05919,3.18668 1.52735,4.76758 0.93631,3.16179 1.71288,6.28612 2.35156,9.34765 0.63869,3.06153 1.139,6.06133 1.52539,8.97461 0.3864,2.91328 0.65846,5.73998 0.83789,8.45703 0.17944,2.71706 0.26735,5.32403 0.28516,7.79688 0.0178,2.47285 -0.0343,4.81152 -0.13281,6.99219 -0.0661,1.46245 -0.17602,2.73972 -0.27735,4.05273 13.6206,3.31829 27.34252,7.23822 41.1543,12.52148 0,0 64.08783,-87.09246 31.10351,-232.95898 0,0 -48.1528,53.93682 -185.61132,70.13477 z"
       inkscape:label="4" />
    <path
       id="path2002"
       style="display:inline;opacity:1;fill:url(#linearGradient25517);fill-opacity:1;stroke-width:2;stroke-linecap:round;stroke-linejoin:round"
       d="m 393.62305,651.47461 c 0,0 0.47131,-1.85988 1.4375,-5.35547 0.96618,-3.49559 2.42656,-8.62751 4.4082,-15.16992 1.98164,-6.54241 4.48488,-14.49626 7.53125,-23.63672 3.04637,-9.14046 6.6365,-19.46612 10.79688,-30.75586 2.08018,-5.64487 4.30199,-11.53086 6.66992,-17.62891 2.36792,-6.09804 4.88114,-12.40917 7.54297,-18.90429 2.66182,-6.49513 5.47366,-13.17561 8.43554,-20.01172 2.96188,-6.83611 6.07566,-13.82823 9.34375,-20.94922 3.2681,-7.12099 6.68906,-14.37092 10.26953,-21.7207 3.58047,-7.34979 7.31975,-14.79979 11.21875,-22.32227 3.89901,-7.52247 7.95795,-15.11679 12.18164,-22.75586 4.2237,-7.63907 8.61147,-15.32191 13.16602,-23.02148 1.38297,-2.33795 2.73864,-4.74345 4.06445,-7.21289 1.32582,-2.46944 2.62199,-5.00276 3.89063,-7.59375 2.53728,-5.18199 4.96103,-10.59654 7.26953,-16.20508 2.3085,-5.60855 4.50242,-11.4116 6.58203,-17.36719 2.07961,-5.95559 4.04393,-12.06399 5.89453,-18.28711 1.8506,-6.22311 3.58751,-12.56153 5.20899,-18.97265 1.62148,-6.41113 3.12728,-12.89641 4.51953,-19.41602 1.39224,-6.51961 2.67109,-13.07251 3.83398,-19.62109 1.1629,-6.54859 2.2111,-13.09181 3.14453,-19.58985 0.93344,-6.49803 1.75122,-12.95039 2.45508,-19.31836 0.70386,-6.36797 1.29341,-12.65216 1.76758,-18.81054 0.47417,-6.15839 0.83376,-12.19127 1.07812,-18.06055 0.24437,-5.86929 0.37423,-11.57551 0.38868,-17.07617 0.006,-2.4165 -0.0948,-4.62858 -0.13282,-6.96289 -79.68693,26.46907 -145.70625,84.08662 -165.47656,196.6914 -19.31101,109.98886 1.17472,211.53876 12.50977,270.03516 z"
       inkscape:label="3" />
    <path
       id="path1943"
       style="display:inline;opacity:1;fill:url(#linearGradient7563);fill-opacity:1;stroke-width:2;stroke-linecap:round;stroke-linejoin:round"
       d="m 393.62305,651.47461 c 2.29883,11.96572 4.61611,23.46359 6.95312,34.52344 2.33701,11.05985 4.69302,21.68165 7.07422,31.89453 2.3812,10.21288 4.78734,20.01659 7.21875,29.4414 2.43141,9.42482 4.88933,18.47037 7.37695,27.16602 2.48764,8.69565 5.00481,17.04298 7.55469,25.06836 2.54988,8.02538 5.13185,15.73051 7.75,23.14453 2.61815,7.41402 5.27242,14.53687 7.96484,21.39844 2.69244,6.86156 5.42257,13.46012 8.19532,19.82812 2.77273,6.36801 5.5882,12.50416 8.44726,18.4375 2.85907,5.93335 5.76149,11.66507 8.71289,17.22266 2.95142,5.55758 5.95218,10.94091 9.00196,16.18164 3.04977,5.24073 6.15053,10.33948 9.30468,15.32227 3.15417,4.98277 6.36045,9.85104 9.625,14.63476 3.26457,4.78373 6.58581,9.48143 9.9668,14.125 6.76198,9.28714 13.76355,18.35364 21.02735,27.4336 0,0 7.58622,-130.89114 35.81835,-315.10352 0,0 117.94441,-52.94011 250.17969,-20.72461 0.10133,-1.31301 0.21129,-2.5903 0.27735,-4.05273 0.0985,-2.18067 0.15061,-4.51934 0.13281,-6.99219 -0.0178,-2.47285 -0.10572,-5.07982 -0.28516,-7.79688 -0.17943,-2.71703 -0.45149,-5.54375 -0.83789,-8.45703 -0.38639,-2.91328 -0.8867,-5.91308 -1.52539,-8.97461 -0.63868,-3.06151 -1.41525,-6.18588 -2.35156,-9.34765 -0.46816,-1.5809 -0.97629,-3.17062 -1.52735,-4.76758 -0.55106,-1.59697 -1.14552,-3.20156 -1.78515,-4.8086 -0.63963,-1.60701 -1.32473,-3.21701 -2.0586,-4.82812 -0.73385,-1.61111 -1.51585,-3.22284 -2.3496,-4.83203 -0.83378,-1.60919 -1.71886,-3.21514 -2.65821,-4.81641 -0.93934,-1.60126 -1.93379,-3.19783 -2.98437,-4.78515 -1.05059,-1.58735 -2.15869,-3.16695 -3.32618,-4.73438 -1.16746,-1.56743 -2.39353,-3.12255 -3.68359,-4.66406 -1.29006,-1.54152 -2.6442,-3.06852 -4.0625,-4.57813 -1.41829,-1.5096 -2.90095,-3.00291 -4.45312,-4.47461 -1.5522,-1.47167 -3.17347,-2.92182 -4.86524,-4.34961 -1.69177,-1.42776 -3.45403,-2.83305 -5.29101,-4.21093 -3.93266,-2.94977 -7.77228,-5.73419 -11.50586,-8.375 -3.73361,-2.64084 -7.36243,-5.13651 -10.87305,-7.50782 -7.02122,-4.74258 -13.57089,-8.98586 -19.55664,-12.88671 -2.99289,-1.95044 -5.84484,-3.81613 -8.54297,-5.61524 -2.69813,-1.79911 -5.2436,-3.53157 -7.62305,-5.21875 -2.37942,-1.68718 -4.59402,-3.32871 -6.63086,-4.94336 -1.82431,-1.4462 -3.45506,-2.8672 -4.98632,-4.28515 -34.77064,4.09731 -74.98473,5.89127 -121.89649,3.65625 0,0 17.53274,-149.19054 124.57422,-169.40625 45.28938,-8.55331 76.16536,-2.48135 105.53906,5.24023 -2.06499,-0.70817 -4.11578,-1.33487 -6.18164,-2.06641 -7.57571,-2.6826 -15.14804,-5.5215 -22.64648,-8.51172 -7.49844,-2.99018 -14.92295,-6.1326 -22.20508,-9.41992 -7.28213,-3.28728 -14.42084,-6.71903 -21.34766,-10.29297 -3.46337,-1.78693 -6.87418,-3.61013 -10.22265,-5.46679 -3.3485,-1.85666 -6.63535,-3.74683 -9.85157,-5.67188 -3.21618,-1.92504 -6.36119,-3.88483 -9.42773,-5.87695 -3.06654,-1.99212 -6.05366,-4.01829 -8.95312,-6.07617 -2.8995,-2.05788 -5.71267,-4.14723 -8.42774,-6.26953 -2.71507,-2.12234 -5.33244,-4.27745 -7.8457,-6.46289 -2.51326,-2.18548 -4.92077,-4.40113 -7.21485,-6.64844 -2.29404,-2.24731 -4.47569,-4.52615 -6.5332,-6.83399 -4.18124,-4.68996 -8.31652,-9.11313 -12.39648,-13.28711 -4.08,-4.17395 -8.10516,-8.09749 -12.0625,-11.78515 -3.95737,-3.68769 -7.84675,-7.13998 -11.66016,-10.3711 -3.81341,-3.23108 -7.54919,-6.24261 -11.19726,-9.04687 -3.64811,-2.80426 -7.20846,-5.40151 -10.66993,-7.80859 -3.46143,-2.40712 -6.82467,-4.62245 -10.07812,-6.66211 -3.25349,-2.0397 -6.39771,-3.90348 -9.42188,-5.60547 -3.02413,-1.702 -5.92767,-3.24271 -8.70117,-4.63672 -2.7735,-1.39401 -5.41646,-2.64207 -7.91797,-3.75781 -2.50147,-1.11575 -4.86215,-2.0996 -7.07031,-2.9668 -4.35767,-1.71136 -8.09776,-2.95171 -11.18945,-3.86719 -3.65363,1.07065 -7.24504,2.28837 -10.84571,3.48438 0.038,2.33431 0.13916,4.54639 0.13282,6.96289 -0.0145,5.50066 -0.14431,11.20688 -0.38868,17.07617 -0.24436,5.86928 -0.60395,11.90216 -1.07812,18.06055 -0.47417,6.15838 -1.06372,12.44257 -1.76758,18.81054 -0.70386,6.36797 -1.52164,12.82033 -2.45508,19.31836 -0.93343,6.49804 -1.98163,13.04126 -3.14453,19.58985 -1.16289,6.54858 -2.44174,13.10148 -3.83398,19.62109 -1.39225,6.51961 -2.89805,13.00489 -4.51953,19.41602 -1.62148,6.41112 -3.35839,12.74954 -5.20899,18.97265 -1.8506,6.22312 -3.81492,12.33152 -5.89453,18.28711 -2.07961,5.95559 -4.27353,11.75864 -6.58203,17.36719 -2.3085,5.60854 -4.73225,11.02309 -7.26953,16.20508 -1.26864,2.59099 -2.56481,5.12431 -3.89063,7.59375 -1.32581,2.46944 -2.68148,4.87494 -4.06445,7.21289 -4.55455,7.69957 -8.94232,15.38241 -13.16602,23.02148 -4.22369,7.63907 -8.28263,15.23339 -12.18164,22.75586 -3.899,7.52248 -7.63828,14.97248 -11.21875,22.32227 -3.58047,7.34978 -7.00143,14.59971 -10.26953,21.7207 -3.26809,7.12099 -6.38187,14.11311 -9.34375,20.94922 -2.96188,6.83611 -5.77372,13.51659 -8.43554,20.01172 -2.66183,6.49512 -5.17505,12.80625 -7.54297,18.90429 -2.36793,6.09805 -4.58974,11.98404 -6.66992,17.62891 -4.16038,11.28974 -7.75051,21.6154 -10.79688,30.75586 -3.04637,9.14046 -5.54961,17.09431 -7.53125,23.63672 -1.98164,6.54241 -3.44202,11.67433 -4.4082,15.16992 -0.96619,3.49559 -1.4375,5.35547 -1.4375,5.35547 z"
       inkscape:label="2" />
    <path
       id="path1872"
       style="display:inline;opacity:1;fill:url(#linearGradient2104);fill-opacity:1;stroke-width:2;stroke-linecap:round;stroke-linejoin:round"
       d="m 675.66797,165.38086 c -39.87909,0.27867 -80.39013,4.79358 -118.23242,15.88281 3.09171,0.91548 6.83178,2.15583 11.18945,3.86719 2.20816,0.8672 4.56882,1.85105 7.07031,2.9668 2.50151,1.11574 5.14447,2.3638 7.91797,3.75781 2.7735,1.39401 5.67702,2.93472 8.70117,4.63672 3.02417,1.70199 6.16839,3.56577 9.42188,5.60547 3.25347,2.03968 6.61667,4.25499 10.07812,6.66211 3.46147,2.4071 7.02182,5.00433 10.66993,7.80859 3.64809,2.80426 7.38385,5.81577 11.19726,9.04687 3.81341,3.23112 7.70279,6.68341 11.66016,10.3711 3.95736,3.68768 7.9825,7.61118 12.0625,11.78515 4.07998,4.17398 8.21522,8.59713 12.39648,13.28711 2.05751,2.30784 4.23914,4.58668 6.5332,6.83399 2.29408,2.24731 4.70159,4.46296 7.21485,6.64844 2.51326,2.18546 5.13063,4.34055 7.8457,6.46289 2.71507,2.12232 5.52824,4.21165 8.42774,6.26953 2.89948,2.05788 5.88658,4.08405 8.95312,6.07617 3.06654,1.99212 6.21153,3.95191 9.42773,5.87695 3.21622,1.92505 6.50307,3.81522 9.85157,5.67188 3.34849,1.85666 6.75926,3.67984 10.22265,5.46679 6.92682,3.57394 14.06551,7.00567 21.34766,10.29297 7.28215,3.28732 14.70662,6.42972 22.20508,9.41992 7.49846,2.99022 15.07075,5.8291 22.64648,8.51172 2.06586,0.73154 4.11663,1.35824 6.18164,2.06641 43.58279,11.45679 83.81056,26.60448 162.50977,3.48047 0,0 65.92093,-60.8571 19.38867,-145.94531 -7.5259,-13.76181 -32.44543,1.58853 -39.72852,9.33593 -15.48216,16.46924 -38.86818,-10.19107 -145.22265,-29.77734 -39.54522,-7.28266 -85.29938,-12.69504 -131.9375,-12.36914 z m 219.54492,52.11133 a 35.043892,35.043892 0 0 1 35.04297,35.04297 35.043892,35.043892 0 0 1 -35.04297,35.04492 35.043892,35.043892 0 0 1 -35.04492,-35.04492 35.043892,35.043892 0 0 1 35.04492,-35.04297 z"
       inkscape:label="1" />
  </g>
</svg>
