<?xml version="1.0" encoding="UTF-8" standalone="no"?>
<!-- Created with Inkscape (http://www.inkscape.org/) -->

<svg
   width="150"
   height="150"
   viewBox="0 0 39.687501 39.687502"
   version="1.1"
   id="svg11568"
   inkscape:export-filename="/home/darley/Downloads/dashboard_logos/Main Logo/PNG/main_logo_dark_mode.png"
   inkscape:export-xdpi="96"
   inkscape:export-ydpi="96"
   inkscape:version="1.1.2 (0a00cf5339, 2022-02-04)"
   sodipodi:docname="main_logo_dark_mode.svg"
   xmlns:inkscape="http://www.inkscape.org/namespaces/inkscape"
   xmlns:sodipodi="http://sodipodi.sourceforge.net/DTD/sodipodi-0.dtd"
   xmlns:xlink="http://www.w3.org/1999/xlink"
   xmlns="http://www.w3.org/2000/svg"
   xmlns:svg="http://www.w3.org/2000/svg">
  <sodipodi:namedview
     id="namedview11570"
     pagecolor="#ffffff"
     bordercolor="#000000"
     borderopacity="0.25"
     inkscape:pageshadow="2"
     inkscape:pageopacity="0.0"
     inkscape:pagecheckerboard="0"
     inkscape:document-units="mm"
     showgrid="false"
     width="144mm"
     units="px"
     inkscape:zoom="3.94"
     inkscape:cx="132.36041"
     inkscape:cy="75"
     inkscape:window-width="1536"
     inkscape:window-height="800"
     inkscape:window-x="0"
     inkscape:window-y="27"
     inkscape:window-maximized="1"
     inkscape:current-layer="svg11568"
     height="150px"
     inkscape:snap-global="true"
     inkscape:snap-bbox="false"
     inkscape:bbox-paths="true"
     inkscape:bbox-nodes="true"
     inkscape:snap-bbox-edge-midpoints="true"
     inkscape:snap-bbox-midpoints="true"
     inkscape:object-paths="true"
     inkscape:snap-intersection-paths="true"
     inkscape:snap-smooth-nodes="true"
     inkscape:snap-midpoints="true"
     inkscape:snap-object-midpoints="true"
     inkscape:snap-center="true"
     inkscape:snap-page="true"
     inkscape:snap-text-baseline="true"
     showguides="true"
     inkscape:guide-bbox="true"
     inkscape:snap-nodes="true"
     inkscape:snap-others="false">
    <sodipodi:guide
       position="0,39.687502"
       orientation="-0.70710678,-0.70710678"
       id="guide245" />
    <sodipodi:guide
       position="39.687501,39.687502"
       orientation="0.70710678,-0.70710678"
       id="guide247" />
  </sodipodi:namedview>
  <defs
     id="defs11565">
    <linearGradient
       inkscape:collect="always"
       xlink:href="#linearGradient75682"
       id="linearGradient75684"
       x1="835.70233"
       y1="667.35364"
       x2="880.35229"
       y2="717.32416"
       gradientUnits="userSpaceOnUse"
       gradientTransform="matrix(0.36699958,0,0,0.36699958,1.6156333,3.0794952)" />
    <linearGradient
       inkscape:collect="always"
       id="linearGradient75682">
      <stop
         style="stop-color:#a22a15;stop-opacity:1;"
         offset="0"
         id="stop75678" />
      <stop
         style="stop-color:#e34c33;stop-opacity:1;"
         offset="1"
         id="stop75680" />
    </linearGradient>
    <linearGradient
       inkscape:collect="always"
       xlink:href="#linearGradient70289"
       id="linearGradient3322"
       gradientUnits="userSpaceOnUse"
       x1="150.16776"
       y1="736.74072"
       x2="1180.1678"
       y2="736.74072" />
    <linearGradient
       inkscape:collect="always"
       id="linearGradient70289">
      <stop
         style="stop-color:#502d16;stop-opacity:1;"
         offset="0"
         id="stop70285" />
      <stop
         style="stop-color:#d18353;stop-opacity:1;"
         offset="0.23172057"
         id="stop70287" />
      <stop
         style="stop-color:#66391c;stop-opacity:1;"
         offset="0.49011609"
         id="stop70295" />
      <stop
         style="stop-color:#cc7843;stop-opacity:1;"
         offset="0.75885165"
         id="stop70297" />
      <stop
         style="stop-color:#5a3218;stop-opacity:1;"
         offset="1"
         id="stop70299" />
    </linearGradient>
    <radialGradient
       inkscape:collect="always"
       xlink:href="#linearGradient70351"
       id="radialGradient70353-9"
       cx="665.16779"
       cy="736.74072"
       fx="665.16779"
       fy="736.74072"
       r="515"
       gradientTransform="matrix(1.9750754,0,0,0.0407767,-648.58875,706.69887)"
       gradientUnits="userSpaceOnUse" />
    <linearGradient
       inkscape:collect="always"
       id="linearGradient70351">
      <stop
         style="stop-color:#502d16;stop-opacity:0;"
         offset="0"
         id="stop70349" />
      <stop
         style="stop-color:#502d16;stop-opacity:1;"
         offset="1"
         id="stop70347" />
    </linearGradient>
    <linearGradient
       inkscape:collect="always"
       xlink:href="#linearGradient33935"
       id="linearGradient2257"
       gradientUnits="userSpaceOnUse"
       x1="226.51814"
       y1="564.24243"
       x2="1319.8937"
       y2="564.24243" />
    <linearGradient
       inkscape:collect="always"
       id="linearGradient33935">
      <stop
         style="stop-color:#feeb04;stop-opacity:1;"
         offset="0"
         id="stop33931" />
      <stop
         style="stop-color:#bc0820;stop-opacity:1;"
         offset="1"
         id="stop33933" />
    </linearGradient>
    <linearGradient
       inkscape:collect="always"
       xlink:href="#linearGradient49512"
       id="linearGradient1581"
       x1="493.44611"
       y1="576.25391"
       x2="769.67065"
       y2="662.77362"
       gradientUnits="userSpaceOnUse" />
    <linearGradient
       inkscape:collect="always"
       id="linearGradient49512">
      <stop
         style="stop-color:#000000;stop-opacity:0.3"
         offset="0"
         id="stop49508" />
      <stop
         style="stop-color:#000000;stop-opacity:0;"
         offset="1"
         id="stop49510" />
    </linearGradient>
    <radialGradient
       inkscape:collect="always"
       xlink:href="#linearGradient66392"
       id="radialGradient1252"
       cx="657.35681"
       cy="795.29236"
       fx="657.35681"
       fy="795.29236"
       r="130.82927"
       gradientTransform="matrix(0.85528649,0.53332403,-0.45635482,0.73185173,458.06392,-139.14289)"
       gradientUnits="userSpaceOnUse" />
    <linearGradient
       inkscape:collect="always"
       id="linearGradient66392">
      <stop
         style="stop-color:#000000;stop-opacity:1;"
         offset="0"
         id="stop66388" />
      <stop
         style="stop-color:#000000;stop-opacity:0;"
         offset="1"
         id="stop66390" />
    </linearGradient>
    <linearGradient
       inkscape:collect="always"
       xlink:href="#linearGradient66392"
       id="linearGradient6976"
       x1="1079.7877"
       y1="977.98315"
       x2="395.0253"
       y2="865.74182"
       gradientUnits="userSpaceOnUse" />
    <linearGradient
       inkscape:collect="always"
       xlink:href="#linearGradient66392"
       id="linearGradient6961"
       x1="343.70895"
       y1="777.8385"
       x2="365.55484"
       y2="894.3678"
       gradientUnits="userSpaceOnUse" />
    <linearGradient
       inkscape:collect="always"
       xlink:href="#linearGradient49512"
       id="linearGradient6765"
       x1="373.71408"
       y1="627.57544"
       x2="345.79242"
       y2="756.15302"
       gradientUnits="userSpaceOnUse" />
    <linearGradient
       inkscape:collect="always"
       xlink:href="#linearGradient48700"
       id="linearGradient6508"
       x1="461.47171"
       y1="490.53687"
       x2="419.66037"
       y2="646.57886"
       gradientUnits="userSpaceOnUse" />
    <linearGradient
       id="linearGradient48700"
       inkscape:collect="always">
      <stop
         style="stop-color:#000000;stop-opacity:0.42575804"
         offset="0"
         id="stop48696" />
      <stop
         style="stop-color:#000000;stop-opacity:0;"
         offset="1"
         id="stop48698" />
    </linearGradient>
    <linearGradient
       inkscape:collect="always"
       xlink:href="#linearGradient43547"
       id="linearGradient1887"
       x1="622.31561"
       y1="136.04028"
       x2="681.68787"
       y2="450.0629"
       gradientUnits="userSpaceOnUse" />
    <linearGradient
       inkscape:collect="always"
       id="linearGradient43547">
      <stop
         style="stop-color:#000000;stop-opacity:0.58"
         offset="0"
         id="stop43543" />
      <stop
         style="stop-color:#000000;stop-opacity:0;"
         offset="1"
         id="stop43545" />
    </linearGradient>
    <linearGradient
       inkscape:collect="always"
       xlink:href="#linearGradient4382"
       id="linearGradient4384"
       x1="1011.8799"
       y1="615.03418"
       x2="1299.8535"
       y2="615.03418"
       gradientUnits="userSpaceOnUse" />
    <linearGradient
       inkscape:collect="always"
       id="linearGradient4382">
      <stop
         style="stop-color:#1a1a1a;stop-opacity:0;"
         offset="0"
         id="stop4380" />
      <stop
         style="stop-color:#1a1a1a;stop-opacity:1;"
         offset="1"
         id="stop4378" />
    </linearGradient>
    <linearGradient
       inkscape:collect="always"
       xlink:href="#linearGradient4382"
       id="linearGradient4466"
       x1="1038.3103"
       y1="636.86389"
       x2="1011.3752"
       y2="734.46057"
       gradientUnits="userSpaceOnUse" />
    <linearGradient
       inkscape:collect="always"
       xlink:href="#linearGradient66392"
       id="linearGradient63392"
       x1="544.48083"
       y1="599.82379"
       x2="631.04285"
       y2="658.44733"
       gradientUnits="userSpaceOnUse" />
    <linearGradient
       inkscape:collect="always"
       xlink:href="#linearGradient41146"
       id="linearGradient1689"
       x1="251.65504"
       y1="521.1239"
       x2="1049.3915"
       y2="521.1239"
       gradientUnits="userSpaceOnUse" />
    <linearGradient
       inkscape:collect="always"
       id="linearGradient41146">
      <stop
         style="stop-color:#ffffff;stop-opacity:1;"
         offset="0"
         id="stop41142" />
      <stop
         style="stop-color:#ffffff;stop-opacity:0;"
         offset="1"
         id="stop41144" />
    </linearGradient>
    <linearGradient
       inkscape:collect="always"
       xlink:href="#linearGradient33935"
       id="linearGradient11880"
       gradientUnits="userSpaceOnUse"
       x1="226.51814"
       y1="564.24243"
       x2="1319.8937"
       y2="564.24243" />
  </defs>
  <g
     inkscape:groupmode="layer"
     id="layer2"
     inkscape:label="Background"
     style="display:none">
    <rect
       style="display:inline;fill:#000000;stroke-width:0.34123"
       id="rect153"
       width="39.6875"
       height="39.6875"
       x="-3.5527137e-15"
       y="-3.5527137e-15"
       inkscape:label="Black" />
  </g>
  <g
     id="g506"
     inkscape:label="Variation 1"
     style="display:inline"
     transform="translate(-2.0101266e-8,0.92846633)">
    <g
       id="g418"
       stroke="none"
       stroke-width="1"
       fill="none"
       fill-rule="evenodd"
       transform="matrix(0.19375,0,0,0.19375,21.883333,20.914)"
       inkscape:label="Black Mode"
       style="display:inline">
      <g
         id="g416"
         fill="#e53935"
         fill-rule="nonzero">
        <path
           d="M 40,0 C 62.09139,0 80,17.90861 80,40 80,62.09139 62.09139,80 40,80 17.90861,80 0,62.09139 0,40 0,17.90861 17.90861,0 40,0 Z m 0,3.7333333 C 19.970473,3.7333333 3.7333333,19.970473 3.7333333,40 3.7333333,60.029527 19.970473,76.266667 40,76.266667 60.029527,76.266667 76.266667,60.029527 76.266667,40 76.266667,19.970473 60.029527,3.7333333 40,3.7333333 Z"
           id="path412" />
        <path
           d="M 63.528384,25.286956 V 21.895652 H 52.786026 C 52.209607,19.704348 51.633188,17.773913 51.004367,16 l -3.615721,0.626087 c 0.628821,1.565217 1.257642,3.33913 1.834061,5.269565 H 37.851528 v 3.391304 z m -27.510917,25.2 V 28.834783 h -5.292576 c 1.100436,-1.617392 2.200873,-3.6 3.30131,-6 v -2.504348 h -8.646288 c 0.471615,-1.043479 0.890829,-2.086957 1.310043,-3.182609 L 23.336244,16.104348 C 21.764192,21.217391 19.30131,25.33913 16,28.521739 l 0.786026,3.704348 C 17.467249,31.6 18.148472,30.973913 18.777293,30.295652 V 50.486956 Z M 27.10917,28.834783 h -7.021834 c 1.362446,-1.669566 2.672489,-3.547827 3.825328,-5.530435 h 6.60262 c -1.152839,2.086956 -2.253275,3.965217 -3.406114,5.530435 z M 48.69869,64 c 2.620087,0 3.982533,-1.46087 3.982533,-4.330435 V 44.8 H 61.0131 V 29.982609 H 40.628821 V 44.8 H 49.0131 v 13.982609 c 0,1.304347 -0.524017,1.982608 -1.572052,1.982608 -1.20524,0 -2.462882,-0.104347 -3.720524,-0.260869 L 44.454149,64 Z M 25.90393,38.121739 h -3.877729 v -6.208696 h 3.877729 z m 6.864629,0 h -3.825328 v -6.208696 h 3.825328 z m 24.681223,3.391305 H 44.19214 v -8.191305 h 13.257642 z m -24.681223,5.843478 h -3.825328 v -6.208696 h 3.825328 z m -6.864629,0 H 22.026201 V 41.147826 H 25.90393 Z M 61.222707,61.6 64,59.669565 c -1.414847,-3.33913 -3.406113,-7.2 -6.026201,-11.634782 l -2.777292,1.669565 C 57.71179,54.034783 59.755459,58 61.222707,61.6 Z m -21.956331,0.886956 c 2.305676,-3.6 4.296943,-7.87826 5.973799,-12.782608 l -3.039302,-1.46087 c -1.624454,4.695652 -3.563318,8.765218 -5.764192,12.208696 z M 34.917031,58.93913 37.484716,58.313043 C 36.751092,55.808696 36.017467,53.617391 35.179039,51.73913 l -2.462882,0.730435 c 0.838428,2.086957 1.572053,4.226087 2.200874,6.469565 z m -5.554586,3.026087 2.724891,-0.313043 c -0.31441,-3.965218 -0.890829,-7.095652 -1.729257,-9.391304 l -2.620088,0.313043 c 0.838428,2.191304 1.362446,5.321739 1.624454,9.391304 z M 19.353712,63.373913 C 20.454148,60.295652 21.135371,56.8 21.449782,52.834783 l -2.829695,-0.365218 c -0.262008,3.756522 -0.995633,7.095652 -2.148471,10.017391 z m 4.401746,-0.626087 2.724891,-0.313043 c -0.104803,-4.12174 -0.366812,-7.408696 -0.733624,-9.808696 l -2.515284,0.313043 c 0.262009,2.295653 0.419214,5.582609 0.524017,9.808696 z"
           id="path414" />
      </g>
    </g>
    <g
       id="g504"
       inkscape:label="Funttastic"
       transform="matrix(0.0826031,0,0,0.0826031,-1.3026436,-8.1696069)"
       style="display:inline"
       inkscape:export-filename="/home/darley/Downloads/dashboard_logos/carimbo/PNG/logo_fun.png"
       inkscape:export-xdpi="96"
       inkscape:export-ydpi="96">
      <path
         style="display:inline;fill:url(#linearGradient75684);fill-opacity:1;stroke-width:2;stroke-linecap:round;stroke-linejoin:round;stroke-dasharray:none"
         d="m 287.47942,234.51205 c 0,0 22.03156,28.4371 44.04362,45.46707 3.53465,2.73465 14.97023,-2.86123 6.50796,-10.70343 -7.46915,-6.92185 -11.7939,-6.85302 -39.77635,-42.18772 z"
         id="path428"
         sodipodi:nodetypes="csscc"
         inkscape:label="Leg (Front-Left)" />
      <g
         id="g444"
         inkscape:label="Common"
         style="display:inline;stroke-width:2.7248"
         transform="matrix(0.36699958,0,0,0.36699958,1.6156333,3.0794916)">
        <g
           id="g434"
           inkscape:label="Branch"
           style="display:inline;fill:#ff0000;stroke-width:2.7248">
          <rect
             style="display:inline;opacity:1;mix-blend-mode:normal;fill:url(#linearGradient3322);fill-opacity:1;stroke-width:5.44959;stroke-linecap:round;stroke-linejoin:round;stroke-dasharray:none"
             id="rect430"
             width="1030"
             height="42"
             x="150.16776"
             y="715.74072"
             ry="25.051107"
             inkscape:label="Branch" />
          <rect
             style="display:inline;opacity:1;mix-blend-mode:normal;fill:url(#radialGradient70353-9);fill-opacity:1;stroke-width:5.44959;stroke-linecap:round;stroke-linejoin:round;stroke-dasharray:none"
             id="rect432"
             width="1030"
             height="42"
             x="150.16776"
             y="715.74072"
             ry="25.051107"
             inkscape:label="Branch Shadow" />
        </g>
        <g
           id="g442"
           inkscape:label="Leaves"
           style="display:inline;stroke-width:2.7248">
          <path
             style="opacity:1;fill:#00c704;fill-opacity:1;stroke-width:5.44959;stroke-linecap:round;stroke-linejoin:round;stroke-dasharray:none"
             d="m 153.369,761.92408 c -95.496461,7.77579 -80.07196,105.67855 -80.07196,105.67855 0,0 82.3568,-15.04988 88.82062,-100.75906 0,0 -26.92495,4.69793 -67.407348,60.1283 0,0 15.476238,-34.26641 58.658688,-65.04779 z"
             id="path436"
             sodipodi:nodetypes="ccccc"
             inkscape:label="Leaf #2" />
          <path
             style="opacity:1;fill:#00c704;fill-opacity:1;stroke-width:5.44959;stroke-linecap:round;stroke-linejoin:round;stroke-dasharray:none"
             d="m 152.0013,710.88724 c -19.63568,-65.42629 -85.601252,-40.09948 -85.601252,-40.09948 0,0 22.751671,55.18211 83.473382,46.93161 0,0 -7.28319,-18.07381 -51.95687,-38.04915 0,0 26.19536,5.69025 54.08474,31.21702 z"
             id="path438"
             sodipodi:nodetypes="ccccc"
             inkscape:label="Leaf #2" />
          <path
             style="opacity:1;fill:#00c704;fill-opacity:1;stroke-width:5.44959;stroke-linecap:round;stroke-linejoin:round;stroke-dasharray:none"
             d="m 945.54651,760.24406 c 83.13889,47.62317 27.56951,129.68964 27.56951,129.68964 0,0 -68.15352,-48.62353 -37.5795,-128.95456 0,0 22.37593,15.69525 35.46359,83.07525 0,0 0.55358,-37.59514 -25.4536,-83.81033 z"
             id="path440"
             sodipodi:nodetypes="ccccc"
             inkscape:label="Leaf #1" />
        </g>
      </g>
      <g
         id="g502"
         inkscape:label="Old Modifyed"
         style="display:inline;stroke-width:0.782555"
         transform="matrix(1.2778657,0,0,1.2778657,-71.133376,-103.52928)">
        <g
           id="g470"
           inkscape:label="Body"
           style="display:inline;fill:#ff0000;stroke-width:2.7248"
           transform="matrix(0.2871973,0,0,0.2871973,56.93009,83.427214)">
          <path
             id="path446"
             style="display:inline;opacity:1;fill:#03dcf4;fill-opacity:1;stroke-width:5.44959;stroke-linecap:round;stroke-linejoin:round"
             inkscape:label="Body4-2"
             d="m 410.53954,787.74017 2.29862,12.75799 3.81515,14.8458 4.84206,14.34254 5.80094,13.7645 6.71223,13.13203 7.56231,12.43157 8.35119,11.69709 9.06525,10.90823 2.1558,2.24421 c -5.38424,-14.54759 -8.61873,-30.23142 -8.92244,-46.8632 -0.38856,-21.27798 2.07377,-39.82461 6.12738,-56.02366 -4.98282,-0.54914 -9.92117,-1.02332 -14.81179,-1.43494 -4.93897,-0.41568 -9.82857,-0.76375 -14.66898,-1.04729 -4.8404,-0.28355 -9.63246,-0.50691 -14.36975,-0.66647 -1.33453,-0.0449 -2.63172,-0.0529 -3.95797,-0.0884 z" />
          <path
             id="path448"
             style="display:inline;opacity:1;fill:#57cc38;fill-opacity:1;stroke-width:5.44959;stroke-linecap:round;stroke-linejoin:round"
             inkscape:label="Body3-2"
             d="m 414.66753,701.27685 -0.9997,3.69274 -3.12829,16.28073 -2.59104,32.37784 0.48964,15.9339 1.64576,15.64827 0.45564,2.52984 c 1.32625,0.0355 2.62344,0.0435 3.95797,0.0884 4.73729,0.15956 9.52935,0.38292 14.36975,0.66647 4.8404,0.28354 9.73001,0.63161 14.66898,1.04729 4.89061,0.41162 9.82897,0.8858 14.81179,1.43494 6.53868,-26.12992 17.34597,-45.94599 27.63099,-60.47808 -1.18423,-0.64727 -2.34673,-1.36157 -3.53633,-1.99259 -4.53558,-2.40591 -9.11228,-4.69248 -13.71689,-6.86864 -4.60461,-2.17615 -9.23443,-4.23883 -13.8937,-6.19538 -4.65928,-1.95655 -9.34373,-3.80225 -14.04332,-5.54932 -4.69959,-1.74707 -9.41978,-3.39631 -14.14533,-4.94407 -3.98737,-1.30597 -7.97958,-2.50152 -11.97592,-3.67234 z" />
          <path
             id="path450"
             style="display:inline;opacity:1;fill:#00ff00;stroke-width:5.44959;stroke-linecap:round;stroke-linejoin:round"
             inkscape:label="Body2-2"
             d="m 493.44612,576.25391 -10.12615,8.84763 -12.92121,13.08443 -11.7651,13.8189 -10.5818,14.45815 -9.36448,15.00221 -8.13356,15.44425 -6.88225,15.79789 -5.63093,16.0563 -3.37311,12.51318 c 3.99634,1.17082 7.98857,2.36637 11.97592,3.67234 4.72555,1.54776 9.44574,3.19702 14.14533,4.94407 4.69957,1.74707 9.38404,3.59277 14.04332,5.54932 4.65925,1.95655 9.28909,4.01925 13.8937,6.19538 4.60459,2.17616 9.18131,4.46273 13.71689,6.86864 1.17653,0.62408 2.32476,1.32393 3.49553,1.96539 10.1642,-14.32601 19.82315,-23.49387 24.33948,-28.41307 43.45878,-38.13962 100.44111,-47.1887 159.52258,-44.47617 -50.95374,-37.1139 -114.43171,-63.10808 -176.35416,-81.32884 z" />
          <path
             id="path452"
             style="display:inline;opacity:1;fill:#03dcf4;fill-opacity:1;stroke-width:5.44959;stroke-linecap:round;stroke-linejoin:round"
             inkscape:label="Body4-1"
             d="m 400.44739,787.52254 c -4.62961,-0.0437 -9.2063,-0.0299 -13.72369,0.034 -4.51737,0.0639 -8.97627,0.18338 -13.37685,0.34683 -4.40061,0.16345 -8.74398,0.37086 -13.02322,0.62566 -4.27926,0.2548 -8.49585,0.55287 -12.64919,0.89088 -4.15335,0.338 -8.23867,0.71587 -12.26155,1.12891 -4.0229,0.41304 -7.97923,0.86661 -11.86712,1.34653 -3.88787,0.4799 -7.71077,0.98469 -11.45907,1.52334 -3.74832,0.53864 -7.42645,1.10416 -11.03064,1.69336 -3.60417,0.58921 -7.1331,1.20455 -10.58859,1.83617 -6.91101,1.26323 -13.52134,2.60127 -19.81026,3.98517 -3.89998,0.85822 -7.44316,1.75261 -11.09184,2.63865 l 0.84328,4.2096 3.42072,14.07732 3.94437,13.8393 4.46122,13.56727 4.97126,13.28845 5.45411,12.98922 5.92336,12.66959 6.379,12.33636 6.82104,11.98952 7.24268,11.62229 7.64392,11.24826 8.03155,10.86062 8.24918,10.26216 c 1.62527,-1.17422 3.19741,-2.35255 4.87605,-3.52273 3.34519,-2.3319 6.79677,-4.65178 10.35738,-6.95705 3.56058,-2.30528 7.22961,-4.59686 11.01023,-6.86185 3.7806,-2.26499 7.67829,-4.50795 11.6835,-6.71903 4.00519,-2.2111 8.12238,-4.39187 12.35676,-6.53541 4.23437,-2.14354 8.58228,-4.24866 13.05042,-6.31099 4.46814,-2.06235 9.058,-4.07825 13.76449,-6.04577 4.70649,-1.9675 9.52913,-3.88749 14.47856,-5.74654 4.94944,-1.85903 10.02287,-3.65598 15.21983,-5.39291 5.19696,-1.73693 10.51884,-3.41089 15.9679,-5.01207 1.97819,-0.58128 4.04659,-1.11833 6.07297,-1.66615 0.31483,-0.0851 0.57087,-0.15117 0.94529,-0.25163 l -3.74715,-3.88996 -9.06525,-10.90823 -8.35119,-11.69709 -7.56231,-12.43157 -6.71223,-13.13203 -5.80094,-13.7645 -4.84206,-14.34254 -3.81515,-14.8458 -2.29862,-12.75799 c -3.3809,-0.0915 -6.76673,-0.18621 -10.09215,-0.21763 z" />
          <path
             id="path454"
             style="display:inline;opacity:1;fill:#57cd38;fill-opacity:1;stroke-width:5.44959;stroke-linecap:round;stroke-linejoin:round"
             inkscape:label="Body3-1"
             d="m 276.84579,682.37787 c -4.06361,-0.0246 -8.05863,-0.005 -11.97593,0.0476 -3.51469,0.0476 -6.94435,0.13559 -10.33017,0.23802 l -2.1694,21.43561 -0.64606,30.32405 1.74776,29.848 4.06679,29.20194 2.02659,10.09895 c 3.64898,-0.88451 7.19187,-1.78043 11.09184,-2.63865 6.28893,-1.38391 12.89926,-2.72194 19.81026,-3.98517 3.4555,-0.63162 6.98442,-1.24696 10.58859,-1.83617 3.60419,-0.5892 7.28232,-1.15473 11.03064,-1.69336 3.74831,-0.53865 7.5712,-1.04343 11.45907,-1.52334 3.88789,-0.47992 7.84422,-0.93349 11.86712,-1.34653 4.02289,-0.41304 8.10821,-0.79092 12.26155,-1.12891 4.15335,-0.33801 8.36994,-0.63608 12.64919,-0.89088 4.27925,-0.2548 8.62261,-0.46221 13.02322,-0.62566 4.40058,-0.16345 8.85948,-0.28289 13.37685,-0.34683 4.51739,-0.0639 9.09407,-0.0777 13.72369,-0.034 3.32542,0.0314 6.71049,0.12709 10.09215,0.21763 l -0.45564,-2.52984 -1.64576,-15.64827 -0.48964,-15.9339 2.59104,-32.37784 3.12829,-16.28073 0.9997,-3.69274 c -0.73984,-0.21675 -1.47703,-0.46785 -2.21701,-0.68007 -4.73715,-1.35856 -9.47894,-2.62882 -14.21333,-3.80835 -4.7344,-1.17953 -9.46205,-2.27407 -14.17934,-3.28471 -4.71728,-1.01064 -9.42551,-1.93637 -14.11132,-2.78826 -4.68582,-0.85188 -9.34892,-1.62935 -13.98891,-2.33262 -4.64,-0.70328 -9.25269,-1.33258 -13.8325,-1.89738 -4.57983,-0.56481 -9.13,-1.05966 -13.63528,-1.49614 -4.5053,-0.43648 -8.96726,-0.81741 -13.38366,-1.13571 -4.4164,-0.3183 -8.78487,-0.57861 -13.09803,-0.78887 -4.31315,-0.21026 -8.56923,-0.37048 -12.7648,-0.48285 -4.19555,-0.11236 -8.33396,-0.17941 -12.39756,-0.20402 z" />
          <path
             id="path456"
             style="display:inline;opacity:1;fill:#00ff00;stroke-width:5.44959;stroke-linecap:round;stroke-linejoin:round"
             inkscape:label="Body2-1"
             d="m 300.30119,538.68718 -7.08626,13.61488 -6.95706,14.77779 -6.31779,14.9342 -5.67173,15.06342 -5.03248,15.17902 -4.40001,15.25383 -3.75395,15.30824 -3.12149,15.34224 -2.48904,15.34224 -0.93169,9.16046 c 3.3858,-0.10243 6.81548,-0.19047 10.33017,-0.23802 3.91728,-0.0529 7.91232,-0.0722 11.97593,-0.0476 4.06358,0.0246 8.20203,0.0917 12.39756,0.20402 4.19557,0.11237 8.45167,0.27259 12.7648,0.48285 4.31316,0.21026 8.68163,0.47057 13.09803,0.78887 4.41638,0.3183 8.87836,0.69923 13.38366,1.13571 4.50526,0.43648 9.05545,0.93133 13.63528,1.49614 4.57979,0.56478 9.19252,1.1941 13.8325,1.89738 4.63999,0.70325 9.30309,1.48074 13.98891,2.33262 4.68579,0.85189 9.39406,1.77762 14.11132,2.78826 4.71729,1.01064 9.44496,2.10518 14.17934,3.28471 4.73439,1.17953 9.47618,2.44979 14.21333,3.80835 0.73998,0.21222 1.47717,0.46332 2.21701,0.68007 l 3.37311,-12.51318 5.63093,-16.0563 6.88225,-15.79789 8.13356,-15.44425 9.36448,-15.00221 10.5818,-14.45815 11.7651,-13.8189 12.92121,-13.08443 10.12615,-8.84763 c -75.59116,-22.2428 -147.8459,-32.66546 -193.14493,-37.56673 z"
             sodipodi:nodetypes="cccccccccccssssssssssssccccccccccsc" />
          <path
             id="path458"
             style="display:inline;opacity:1;fill:url(#linearGradient11880);fill-opacity:1;stroke-width:5.44959;stroke-linecap:round;stroke-linejoin:round"
             inkscape:label="Body1-Complete"
             d="m 383.79943,430.95827 c -38.53917,36.01863 -59.22174,65.19444 -82.99499,106.76322 l -0.59846,1.14251 c 81.85752,8.77127 255.71641,35.87365 369.43108,118.60994 64.08908,2.9222 131.28493,4.80873 185.2902,17.00159 98.73019,22.29048 188.05504,60.8617 209.17404,74.19497 21.1187,13.33327 56.2342,43.43234 74.7798,61.8382 7.8729,7.81352 14.2099,15.42988 22.8094,16.89279 10.9044,1.85503 27.7682,-10.36421 20.0754,-26.44768 -13.1035,-27.39602 -52.5417,-42.31357 -52.5417,-42.31358 0,0 21.4671,-0.81996 34.5337,-2.31901 17.5622,-2.01483 22.7267,-25.86591 7.0862,-38.04278 -4.6876,-3.64945 -19.6982,-2.28524 -29.7256,-1.69336 -23.0081,1.35811 -54.6409,1.30333 -81.6348,-8.5892 -30.7398,-11.26517 -73.20891,-32.39144 -73.20891,-32.39144 0,0 16.58751,-3.8589 28.77351,-4.38641 119.5252,-5.17406 186.9321,-26.32462 228.039,-46.21714 41.1071,-19.89251 63.0302,-40.02461 72.2772,-52.53493 9.2469,-12.51034 3.902,-21.12609 -12.1256,-31.01092 -16.0275,-9.88482 -10.5193,4.61441 -20.7759,-11.23465 -10.2565,-15.84905 -17.1673,-45.38572 -69.795,-86.78295 -52.6274,-41.39723 -99.5386,-55.9936 -146.7169,-63.64037 -47.1781,-7.64681 -123.334,0.0544 -103.43774,22.08847 23.57283,26.10559 48.28834,45.52013 69.59094,79.64908 12.1411,19.45115 20.8758,39.01691 25.8968,54.20789 7.0617,21.36567 39.0425,25.34598 39.0425,25.34598 0,0 -25.993,1.02025 -37.832,-12.6968 -49.9812,-91.06584 -120.42808,-184.62623 -235.93711,-221.67481 -96.81986,-31.05418 -198.23615,-19.13155 -268.96995,2.95209 -66.70652,20.42644 -127.735,61.54707 -170.50511,101.2893 z"
             sodipodi:nodetypes="cccccssssscsssscsssssssssscscc" />
          <path
             id="path460"
             style="display:none;opacity:1;fill:url(#linearGradient2257);fill-opacity:1;stroke-width:5.44959;stroke-linecap:round;stroke-linejoin:round"
             inkscape:label="Body1-1"
             d="m 714.27646,308.17954 c -59.56625,-2.14768 -115.76284,7.68776 -159.97142,21.49002 -66.70646,20.42642 -127.73554,61.54652 -170.50561,101.28871 -38.53913,36.01859 -59.22177,65.19448 -82.99499,106.76322 l -0.59846,1.14251 c 44.92821,4.81419 117.65021,15.58809 192.85251,37.61433 0.002,-0.002 0.004,-0.005 0.007,-0.007 -0.007,-0.002 -0.0134,-0.005 -0.0204,-0.007 0.053,-0.0448 0.11011,-0.0844 0.16321,-0.12921 0.011,-0.009 0.023,-0.0182 0.034,-0.0272 h 0.007 c 5.86853,-4.94779 11.96156,-9.61606 18.25291,-14.00252 6.29135,-4.38645 12.78408,-8.49434 19.44302,-12.30915 13.31789,-7.62964 27.31266,-14.10057 41.76953,-19.38182 14.45686,-5.28125 29.36975,-9.37033 44.52378,-12.22075 15.15402,-2.85042 30.54935,-4.46411 45.95871,-4.80125 10.28725,-0.22508 20.58397,0.12167 30.82049,1.0473 10.23652,0.92562 20.41291,2.43012 30.46686,4.52922 9.46771,1.85908 18.78183,3.9996 27.95063,6.53542 9.1688,2.53581 18.19335,5.46563 27.07334,8.90203 8.87999,3.4364 17.61518,7.38109 26.21646,11.94192 8.60128,4.56084 17.06771,9.73915 25.40038,15.64827 6.67073,4.73055 14.76066,10.6388 23.69343,18.0897 8.93277,7.4509 18.70614,16.44529 28.7463,27.35897 5.02008,5.45684 10.10539,11.38994 15.18582,17.85167 5.08044,6.46174 10.15537,13.45454 15.15183,21.01398 4.99645,7.55944 9.91443,15.68474 14.68257,24.43469 4.76815,8.74995 9.3894,18.12139 13.7849,28.15464 59.63934,19.48534 107.25404,40.42969 121.73144,49.56986 21.1187,13.33325 56.2342,43.43236 74.7798,61.8382 7.8729,7.81351 14.2099,15.42988 22.8094,16.89279 10.9043,1.85503 27.7682,-10.36423 20.0754,-26.44768 -13.1034,-27.396 -52.5417,-42.31357 -52.5417,-42.31358 0,0 21.4671,-0.81997 34.5337,-2.31901 17.5621,-2.01483 22.7267,-25.86592 7.0862,-38.04278 -4.6876,-3.64944 -19.6982,-2.28523 -29.7256,-1.69336 -23.008,1.35811 -54.641,1.30332 -81.6348,-8.5892 -30.7398,-11.26516 -73.20892,-32.39144 -73.20892,-32.39144 0,0 16.58752,-3.8589 28.77352,-4.38641 119.5251,-5.17406 186.9321,-26.32464 228.039,-46.21714 41.1071,-19.89249 63.0302,-40.02463 72.2772,-52.53493 9.2469,-12.51033 3.902,-21.1261 -12.1256,-31.01092 -16.0274,-9.88481 -10.5193,4.61439 -20.7759,-11.23465 -10.2565,-15.84904 -17.1673,-45.38576 -69.795,-86.78295 -52.6273,-41.39719 -99.5387,-55.99361 -146.7169,-63.64037 -47.1781,-7.64681 -123.33399,0.0544 -103.43775,22.08847 23.57281,26.10556 48.28835,45.52016 69.59095,79.64908 12.1411,19.45113 20.8758,39.01692 25.8968,54.20789 7.0617,21.36565 39.0425,25.34598 39.0425,25.34598 0,0 -25.993,1.02024 -37.832,-12.6968 C 1009.2305,457.32595 938.786,363.76663 823.27709,326.71808 786.96968,315.07278 750.0162,309.46815 714.27646,308.17954 Z" />
          <path
             id="path462"
             style="display:inline;opacity:1;fill:url(#linearGradient1581);fill-opacity:1;stroke-width:5.44959;stroke-linecap:round;stroke-linejoin:round"
             inkscape:label="Body1-2-3-4-Shadow"
             d="m 663.19686,513.59283 c -89.36621,1.33081 -178.39213,48.16457 -223.48138,126.2251 -19.39716,32.95132 -30.38251,70.65248 -31.37398,108.89466 -2.22059,52.72207 16.81969,106.36971 52.80119,145.15194 -18.17694,-51.81102 -8.04949,-111.77173 20.96393,-157.66571 24.60972,-40.64114 68.37961,-66.90787 114.89689,-74.46762 52.2955,-9.22277 104.50686,-1.90899 157.17308,-0.0663 59.6911,2.65516 118.59773,14.44222 175.24408,33.27064 26.86194,12.33668 -5.49093,-27.87302 -9.93453,-39.67761 -41.92986,-68.4595 -111.45819,-121.60647 -191.45912,-135.37758 -21.27075,-4.62105 -43.06634,-6.79434 -64.83016,-6.28749 z" />
          <path
             id="path464"
             style="display:inline;opacity:1;fill:#03dcf4;fill-opacity:1;stroke-width:5.44959;stroke-linecap:round;stroke-linejoin:round"
             inkscape:label="Body7"
             d="m 549.54459,779.40258 c -1.35704,0.55066 -2.7513,1.11251 -4.2232,1.67296 -0.83538,0.31808 -1.6876,0.63409 -2.55704,0.95209 -0.86943,0.31799 -1.7577,0.63653 -2.65905,0.95209 -0.90134,0.31555 -1.81633,0.62772 -2.74745,0.93849 -0.93113,0.31076 -1.87711,0.62126 -2.83587,0.92488 -0.95876,0.30363 -1.93322,0.60355 -2.91747,0.89769 -0.98427,0.29413 -1.97787,0.58138 -2.98548,0.86368 -1.00763,0.2823 -2.02463,0.55477 -3.05349,0.82288 -1.02886,0.26811 -2.07356,0.5305 -3.12149,0.78207 -1.04795,0.25157 -2.1042,0.49498 -3.1691,0.72767 -1.06491,0.23268 -2.13698,0.45501 -3.2167,0.66646 -1.07973,0.21145 -2.16511,0.41059 -3.25751,0.59846 -1.0924,0.18786 -2.18856,0.36852 -3.29151,0.53045 -1.10295,0.16192 -2.21416,0.3084 -3.32551,0.44204 -1.11135,0.13364 -2.2283,0.25062 -3.34591,0.35363 -0.97732,0.0901 -1.9573,0.15946 -2.93788,0.22442 l 2.45503,12.32276 6.52181,17.55245 8.97004,15.83868 11.06464,13.8257 12.7512,11.56109 14.02292,9.12645 14.87299,6.58982 15.29464,4.03278 15.30824,1.50974 14.9274,-0.91808 14.18613,-3.1827 13.11843,-5.24329 11.79231,-7.06587 10.22136,-8.60281 8.48719,-9.83372 6.63063,-10.75861 4.08038,-10.16015 c -0.0126,-0.003 -0.0215,-0.003 -0.034,-0.007 a 15.749621,15.749621 0 0 0 1.16971,-5.86215 15.749621,15.749621 0 0 0 -15.75028,-15.75028 15.749621,15.749621 0 0 0 -13.8665,8.37158 c -0.0156,-0.004 -0.0251,-0.009 -0.0408,-0.0136 l -4.51562,8.494 -4.2368,5.3657 -5.11408,4.80805 -5.91656,4.11439 -6.63062,3.28471 -7.21548,2.33262 -7.68472,1.28532 -7.99075,0.14961 -8.14036,-1.0541 -8.09956,-2.29861 -7.87514,-3.54993 -7.4671,-4.78765 -6.85505,-5.99137 -6.05936,-7.10666 -5.07328,-8.13357 -3.93757,-9.01764 -2.63185,-9.75212 -1.20371,-10.28937 z" />
          <path
             id="path466"
             style="display:inline;opacity:1;fill:#52ec08;fill-opacity:1;stroke-width:5.44959;stroke-linecap:round;stroke-linejoin:round"
             inkscape:label="Body6"
             d="m 658.47722,632.43398 -26.24367,0.31963 -25.14196,4.36601 -23.4622,8.06556 -21.2724,11.37067 -18.66775,14.19973 -15.72308,16.51195 -12.54717,18.28012 -9.21487,19.48383 -5.84175,20.12989 -2.49583,20.2251 0.72767,19.79665 1.30572,6.56942 c 0.98058,-0.065 1.96056,-0.13434 2.93788,-0.22442 1.11762,-0.10301 2.23456,-0.21999 3.34591,-0.35363 1.11135,-0.13364 2.22256,-0.28012 3.32551,-0.44204 1.10295,-0.16193 2.19911,-0.34259 3.29151,-0.53045 1.0924,-0.18787 2.17778,-0.38701 3.25751,-0.59846 1.07972,-0.21145 2.15179,-0.43378 3.2167,-0.66646 1.0649,-0.23269 2.12115,-0.4761 3.1691,-0.72767 1.04794,-0.25157 2.09263,-0.51396 3.12149,-0.78207 1.02886,-0.26811 2.04586,-0.54058 3.05349,-0.82288 1.00762,-0.2823 2.00121,-0.56955 2.98548,-0.86368 0.98426,-0.29414 1.95871,-0.59406 2.91747,-0.89769 0.95876,-0.30362 1.90474,-0.61412 2.83587,-0.92488 0.93112,-0.31077 1.84611,-0.62294 2.74745,-0.93849 0.90135,-0.31556 1.78962,-0.6341 2.65905,-0.95209 0.86944,-0.318 1.72166,-0.63401 2.55704,-0.95209 1.4719,-0.56045 2.86616,-1.1223 4.2232,-1.67296 l 0.21762,-7.09986 1.93138,-10.74501 3.58394,-10.6158 5.22969,-10.23496 6.85504,-9.6093 8.40559,-8.71842 9.84733,-7.58271 11.13264,-6.22259 12.24795,-4.63803 13.12523,-2.86307 13.7577,-0.92489 14.11132,1.12891 14.15213,3.2643 13.8733,5.45412 13.26805,7.62351 12.31595,9.73172 11.03744,11.7447 9.43929,13.58087 7.5419,15.20623 5.35891,16.57316 2.95147,17.63405 0.33323,18.34812 -2.41422,18.67456 -5.2705,18.59294 -6.36539,14.12493 c 1.8675,0.0432 3.76945,-0.11606 5.62412,-0.0272 7.47928,0.35831 14.83667,1.06986 21.95927,2.03339 7.12258,0.96352 14.00928,2.17959 20.53792,3.52953 6.52865,1.34994 12.69829,2.83486 18.39573,4.35241 11.39488,3.03509 20.89609,6.18966 27.54259,8.5824 0.72773,0.26199 0.48432,0.19941 1.1425,0.44204 l 1.80897,-6.02536 3.78116,-17.62045 2.33262,-17.62046 0.91128,-17.49804 -0.48284,-17.26682 -1.82937,-16.94039 -3.1283,-16.50515 -4.37281,-15.9747 -5.54932,-15.36264 -6.66463,-14.65538 -7.70512,-13.8869 -8.65721,-13.04363 -9.5413,-12.14594 -10.33017,-11.18025 -11.03063,-10.18055 -11.6427,-9.14006 -12.15954,-8.06556 -12.58798,-6.97745 -12.92121,-5.86896 -26.46809,-8.38518 z" />
          <path
             id="path468"
             style="display:inline;opacity:1;fill:#9123b1;fill-opacity:1;stroke-width:5.44959;stroke-linecap:round;stroke-linejoin:round"
             inkscape:label="Body5"
             d="m 821.41371,890.74263 c -0.65818,-0.24264 -0.41477,-0.18005 -1.1425,-0.44204 -6.6465,-2.39275 -16.1477,-5.5473 -27.54259,-8.5824 -5.69745,-1.51755 -11.86708,-3.00247 -18.39573,-4.35241 -6.52865,-1.34994 -13.41533,-2.56601 -20.53792,-3.52953 -7.1226,-0.96353 -14.47999,-1.67508 -21.95927,-2.03339 -1.85468,-0.0889 -3.75661,0.0704 -5.62412,0.0272 l -1.78857,3.95797 -10.99663,17.13081 -13.74409,15.73668 -16.32154,13.9073 -18.66095,11.6563 -20.70794,9.02444 -22.3741,6.04577 -23.63222,2.76786 -24.40069,-0.74807 -24.65912,-4.43402 -24.37349,-8.22197 -11.89431,-5.52892 -11.60189,-6.481 -11.24826,-7.4059 -10.80621,-8.32398 -10.29617,-9.21487 -5.97096,-6.18858 c -0.37442,0.10035 -0.63044,0.16657 -0.94529,0.25163 -2.02669,0.54752 -4.09478,1.08487 -6.07297,1.66615 -5.44905,1.60118 -10.77093,3.27514 -15.9679,5.01207 -5.19694,1.73693 -10.27038,3.53387 -15.21983,5.39291 -4.94941,1.85905 -9.77206,3.77903 -14.47856,5.74654 -4.70647,1.96752 -9.29634,3.98342 -13.76449,6.04577 -4.46812,2.06231 -8.81607,4.16745 -13.05042,6.31099 -4.23439,2.14354 -8.35159,4.32431 -12.35676,6.53541 -4.00521,2.21109 -7.90289,4.45406 -11.6835,6.71903 -3.78062,2.265 -7.44966,4.55657 -11.01023,6.86185 -3.56061,2.30527 -7.01219,4.62515 -10.35738,6.95705 -1.67863,1.17018 -3.25079,2.34851 -4.87605,3.52273 l 0.14961,0.19042 8.74562,10.03774 9.07885,9.6161 9.38488,9.18087 9.67731,8.73882 9.94934,8.28994 10.19415,7.8276 10.42538,7.3651 10.643,6.8958 10.82662,6.413 22.14288,11.3979 22.65972,9.4665 23.02017,7.5215 23.21738,5.5833 23.25138,3.6587 23.14937,1.775 22.89095,-0.075 22.48971,-1.8702 21.96606,-3.6043 21.2996,-5.2705 20.52433,-6.855 19.63344,-8.3512 18.64055,-9.7521 17.55925,-11.0443 16.38954,-12.2411 15.14502,-13.31569 13.8461,-14.28134 12.47917,-15.11782 11.08504,-15.84548 9.64331,-16.44395 8.19477,-16.92679 6.71903,-17.27362 z"
             sodipodi:nodetypes="csssssccccccccccccccccccssssssssssscccccccccccccccccccccccccccccccccc" />
        </g>
        <g
           id="g478"
           inkscape:label="Eye"
           style="display:inline;fill:#ff0000;stroke-width:2.7248"
           transform="matrix(0.2871973,0,0,0.2871973,56.93009,83.427214)">
          <path
             id="path472"
             style="display:inline;opacity:1;fill:#ffffff;stroke-width:5.44959;stroke-linecap:round;stroke-linejoin:round"
             d="m 1235.6989,499.34072 c 0,34.18774 -27.8233,56.72857 -61.5974,56.72858 -33.7741,-10e-6 -60.1111,-21.67095 -60.1111,-55.8587 0,-34.18774 25.9366,-62.01222 59.7107,-62.01223 33.7741,10e-6 61.9978,26.95461 61.9978,61.14235 z"
             sodipodi:nodetypes="sssss"
             inkscape:label="Eye1" />
          <path
             id="path474"
             style="display:inline;opacity:1;fill:#ffdf84;fill-opacity:1;stroke-width:5.44959;stroke-linecap:round;stroke-linejoin:round"
             d="m 1223.7479,499.77143 c 0,26.84728 -23.6705,44.76344 -50.1929,44.76345 -26.5225,-1e-5 -48.0584,-17.60625 -48.0584,-44.45354 0,-26.84727 26.7304,-47.87196 53.2528,-47.87196 26.5225,0 44.9985,20.71478 44.9985,47.56205 z"
             sodipodi:nodetypes="sssss"
             inkscape:label="Eye2" />
          <path
             id="path476"
             style="display:inline;opacity:1;fill:#1a1a1a;stroke-width:5.44959;stroke-linecap:round;stroke-linejoin:round"
             d="m 1147.6746,510.85623 c -6.9954,-0.82401 -9.9903,-7.90207 -9.2366,-15.032 0.7496,-7.09041 6.1397,-12.19904 12.7349,-11.8635 6.5952,0.33553 10.6175,5.20304 10.3142,14.2285 -0.4996,7.54302 -5.8304,13.3375 -13.8125,12.667 z"
             sodipodi:nodetypes="cszcc"
             inkscape:label="Eye3" />
        </g>
        <g
           id="g498"
           inkscape:label="Shadows"
           style="display:inline;fill:#ff0000;stroke-width:2.7248"
           transform="matrix(0.2871973,0,0,0.2871973,56.93009,83.427214)">
          <path
             id="path480"
             style="display:inline;opacity:1;fill:url(#radialGradient1252);fill-opacity:1;stroke-width:5.44959;stroke-linecap:round;stroke-linejoin:round"
             inkscape:label="Shadow9!"
             d="m 644.25708,666.6616 c -60.77633,-0.80688 -109.50359,39.73516 -120.53451,80.91399 -11.03092,41.17883 4.21358,71.18993 27.43377,87.81665 23.2202,16.62673 58.84393,17.1163 78.51337,5.76014 l -7.21548,2.33262 -7.68472,1.28532 -7.99075,0.14961 -8.14036,-1.0541 -8.09956,-2.29861 -7.87514,-3.54993 -7.4671,-4.78765 -6.85505,-5.99137 -6.05936,-7.10666 -5.07328,-8.13357 -3.93757,-9.01764 -2.63185,-9.75212 -1.20371,-10.28937 0.10881,-3.53633 0.21762,-7.09986 1.93138,-10.74501 3.58394,-10.6158 5.22969,-10.23496 6.85504,-9.6093 8.40559,-8.71842 9.84733,-7.58271 11.13264,-6.22259 12.24795,-4.63803 13.12523,-2.86307 13.7577,-0.92489 14.11132,1.12891 14.15213,3.2643 13.8733,5.45412 13.26805,7.62351 12.31595,9.73172 11.03744,11.7447 9.43929,13.58087 7.5419,15.20623 5.35891,16.57316 2.95147,17.63405 0.33323,18.34812 -2.41422,18.67456 -5.2705,18.59294 -6.36539,14.12493 -1.78857,3.95797 -10.99663,17.13081 -13.74409,15.73668 -16.32154,13.9073 -18.66095,11.6563 -20.70794,9.02444 -22.3741,6.04577 -23.63222,2.76786 -24.40069,-0.74807 -12.32956,-2.21701 c 6.75035,0.79471 37.81968,14.31789 110.64639,4.16199 174.03054,-39.96491 123.37987,-288.15554 -27.6446,-286.5925 z" />
          <path
             id="path482"
             style="display:inline;opacity:1;fill:url(#linearGradient6976);fill-opacity:1;stroke-width:5.44959;stroke-linecap:round;stroke-linejoin:round"
             inkscape:label="Shadow8!"
             d="m 381.72524,926.73161 c -3.69238,1.88974 -7.33083,3.79859 -10.84702,5.73974 -4.00521,2.21109 -7.90289,4.45407 -11.6835,6.71903 -3.78062,2.265 -7.44967,4.55657 -11.01023,6.86185 -3.56061,2.30527 -7.01219,4.62515 -10.35738,6.95705 -1.67862,1.17018 -3.2508,2.34851 -4.87605,3.52273 l 0.14961,0.19042 8.74562,10.03774 9.07885,9.6161 9.38488,9.18087 9.67731,8.73882 9.94934,8.28994 10.19415,7.8276 10.42538,7.3651 10.643,6.8958 10.82662,6.413 22.14288,11.3979 22.65972,9.4665 23.02017,7.5215 23.21738,5.5833 23.25138,3.6587 23.14937,1.775 22.89095,-0.075 22.48971,-1.8702 21.96606,-3.6043 21.2996,-5.2705 20.52433,-6.855 19.63344,-8.3512 18.64055,-9.7521 17.55925,-11.0443 16.38954,-12.2411 15.14502,-13.31569 13.8461,-14.28134 5.2637,-6.37219 C 560.04992,1083.9054 435.23384,989.37836 381.72524,926.73161 Z" />
          <path
             id="path484"
             style="display:inline;opacity:0.45;fill:url(#linearGradient6961);fill-opacity:1;stroke-width:5.44959;stroke-linecap:round;stroke-linejoin:round"
             inkscape:label="Shadow7!"
             d="m 400.44739,787.52254 c -4.62961,-0.0437 -9.2063,-0.0299 -13.72369,0.034 -4.51737,0.0639 -8.97627,0.18338 -13.37685,0.34683 -4.40061,0.16345 -8.74398,0.37086 -13.02322,0.62566 -4.27926,0.2548 -8.49585,0.55287 -12.64919,0.89088 -4.15335,0.338 -8.23867,0.71587 -12.26155,1.12891 -4.0229,0.41304 -7.97923,0.86661 -11.86712,1.34653 -3.88787,0.4799 -7.71077,0.98469 -11.45907,1.52334 -3.74832,0.53864 -7.42645,1.10416 -11.03064,1.69336 -3.60417,0.58921 -7.1331,1.20455 -10.58859,1.83617 -6.91101,1.26323 -13.52134,2.60127 -19.81026,3.98517 -3.89998,0.85822 -7.44316,1.75261 -11.09184,2.63865 l 0.84328,4.2096 3.42072,14.07732 3.94437,13.8393 4.46122,13.56727 4.97126,13.28845 5.45411,12.98922 5.92336,12.66959 6.379,12.33636 6.82104,11.98952 7.24268,11.62229 7.64392,11.24826 8.03155,10.86062 8.24918,10.26216 c 1.62527,-1.17422 3.19741,-2.35255 4.87605,-3.52273 3.34519,-2.3319 6.79677,-4.65178 10.35738,-6.95705 3.56058,-2.30528 7.22961,-4.59686 11.01023,-6.86185 3.7806,-2.26499 7.67829,-4.50795 11.6835,-6.71903 4.00519,-2.2111 8.12238,-4.39187 12.35676,-6.53541 4.23437,-2.14354 8.58228,-4.24866 13.05042,-6.31099 4.46814,-2.06235 9.058,-4.07825 13.76449,-6.04577 4.70649,-1.9675 9.52913,-3.88749 14.47856,-5.74654 4.94944,-1.85903 10.02287,-3.65598 15.21983,-5.39291 5.19696,-1.73693 10.51884,-3.41089 15.9679,-5.01207 1.97819,-0.58128 4.04659,-1.11833 6.07297,-1.66615 0.31483,-0.0851 0.57087,-0.15117 0.94529,-0.25163 l -3.74715,-3.88996 -9.06525,-10.90823 -8.35119,-11.69709 -7.56231,-12.43157 -6.71223,-13.13203 -5.80094,-13.7645 -4.84206,-14.34254 -3.81515,-14.8458 -2.29862,-12.75799 c -3.3809,-0.0915 -6.76673,-0.18621 -10.09215,-0.21763 z" />
          <path
             id="path486"
             style="display:inline;opacity:1;fill:url(#linearGradient6765);fill-opacity:1;stroke-width:5.44959;stroke-linecap:round;stroke-linejoin:round"
             inkscape:label="Shadow6!"
             d="m 276.84579,682.37787 c -4.06361,-0.0246 -8.05863,-0.005 -11.97593,0.0476 -3.51469,0.0476 -6.94435,0.13559 -10.33017,0.23802 l -2.1694,21.43561 -0.64606,30.32405 1.74776,29.848 4.06679,29.20194 2.02659,10.09895 c 3.64898,-0.88451 7.19187,-1.78043 11.09184,-2.63865 6.28893,-1.38391 12.89926,-2.72194 19.81026,-3.98517 3.4555,-0.63162 6.98442,-1.24696 10.58859,-1.83617 3.60419,-0.5892 7.28232,-1.15473 11.03064,-1.69336 3.74831,-0.53865 7.5712,-1.04343 11.45907,-1.52334 3.88789,-0.47992 7.84422,-0.93349 11.86712,-1.34653 4.02289,-0.41304 8.10821,-0.79092 12.26155,-1.12891 4.15335,-0.33801 8.36994,-0.63608 12.64919,-0.89088 4.27925,-0.2548 8.62261,-0.46221 13.02322,-0.62566 4.40058,-0.16345 8.85948,-0.28289 13.37685,-0.34683 4.51739,-0.0639 9.09407,-0.0777 13.72369,-0.034 3.32542,0.0314 6.71049,0.12709 10.09215,0.21763 l -0.45564,-2.52984 -1.64576,-15.64827 -0.48964,-15.9339 2.59104,-32.37784 3.12829,-16.28073 0.9997,-3.69274 c -0.73984,-0.21675 -1.47703,-0.46785 -2.21701,-0.68007 -4.73715,-1.35856 -9.47894,-2.62882 -14.21333,-3.80835 -4.7344,-1.17953 -9.46205,-2.27407 -14.17934,-3.28471 -4.71728,-1.01064 -9.42551,-1.93637 -14.11132,-2.78826 -4.68582,-0.85188 -9.34892,-1.62935 -13.98891,-2.33262 -4.64,-0.70328 -9.25269,-1.33258 -13.8325,-1.89738 -4.57983,-0.56481 -9.13,-1.05966 -13.63528,-1.49614 -4.5053,-0.43648 -8.96726,-0.81741 -13.38366,-1.13571 -4.4164,-0.3183 -8.78487,-0.57861 -13.09803,-0.78887 -4.31315,-0.21026 -8.56923,-0.37048 -12.7648,-0.48285 -4.19555,-0.11236 -8.33396,-0.17941 -12.39756,-0.20402 z" />
          <path
             id="path488"
             style="display:inline;opacity:1;fill:url(#linearGradient6508);fill-opacity:1;stroke-width:5.44959;stroke-linecap:round;stroke-linejoin:round"
             inkscape:label="Shadow5!"
             d="m 300.30119,538.68718 -7.08626,13.61488 -6.95706,14.77779 -6.31779,14.9342 -5.67173,15.06342 -5.03248,15.17902 -4.40001,15.25383 -3.75395,15.30824 -3.12149,15.34224 -2.48904,15.34224 -0.93169,9.16046 c 3.3858,-0.10243 6.81548,-0.19047 10.33017,-0.23802 3.91728,-0.0529 7.91232,-0.0722 11.97593,-0.0476 4.06358,0.0246 8.20203,0.0917 12.39756,0.20402 4.19557,0.11237 8.45167,0.27259 12.7648,0.48285 4.31316,0.21026 8.68163,0.47057 13.09803,0.78887 4.41638,0.3183 8.87836,0.69923 13.38366,1.13571 4.50526,0.43648 9.05545,0.93133 13.63528,1.49614 4.57979,0.56478 9.19252,1.1941 13.8325,1.89738 4.63999,0.70325 9.30309,1.48074 13.98891,2.33262 4.68579,0.85189 9.39406,1.77762 14.11132,2.78826 4.71729,1.01064 9.44496,2.10518 14.17934,3.28471 4.73439,1.17953 9.47618,2.44979 14.21333,3.80835 0.73998,0.21222 1.47717,0.46332 2.21701,0.68007 l 3.37311,-12.51318 5.63093,-16.0563 6.88225,-15.79789 8.13356,-15.44425 9.36448,-15.00221 10.5818,-14.45815 11.7651,-13.8189 12.92121,-13.08443 10.12615,-8.84763 c -75.59116,-22.2428 -147.8459,-32.66546 -193.14493,-37.56673 z"
             sodipodi:nodetypes="cccccccccccssssssssssssccccccccccsc" />
          <path
             id="path490"
             style="display:inline;opacity:1;fill:url(#linearGradient1887);fill-opacity:1;stroke-width:5.44959;stroke-linecap:round;stroke-linejoin:round"
             inkscape:label="Shadow4"
             d="m 347.9787,544.40761 c 94.08468,-114.94563 230.98396,-173.47948 356.32435,-173.47948 181.93612,0 250.22508,89.18866 345.08845,160.47557 -356.24463,69.48212 -591.04427,35.26561 -701.4128,13.00391 z"
             sodipodi:nodetypes="cscc" />
          <path
             id="path492"
             style="display:inline;opacity:0.35;fill:url(#linearGradient4384);fill-opacity:1;stroke-width:5.44959;stroke-linecap:round;stroke-linejoin:round"
             d="m 1115.2013,661.81902 c 60.0728,-9.27112 100.0207,-23.33113 127.8846,-36.81511 26.589,-12.867 44.4682,-25.62089 56.7676,-36.5625 -75.4253,32.34718 -176.7922,36.66095 -232.0119,32.40235 -55.2197,-4.2586 -30.6425,-69.98992 -43.5938,-50.39396 -41.26054,62.42939 -24.08,114.0285 90.9535,91.36922 z"
             sodipodi:nodetypes="csczsc"
             inkscape:label="Shadow3" />
          <path
             id="path494"
             style="display:inline;opacity:0.35;fill:url(#linearGradient4466);fill-opacity:1;stroke-width:5.44959;stroke-linecap:round;stroke-linejoin:round"
             d="m 888.95508,585.06445 c -8.64203,-0.36812 -8.01416,18.87726 -6.25586,20.90625 42.3833,48.90827 103.57422,69.63477 103.57422,69.63477 0,0 16.58746,-3.86116 28.77346,-4.38867 119.5254,-5.17406 186.932,-26.32033 228.039,-46.21289 26.589,-12.86693 44.4682,-25.62089 56.7676,-36.5625 -137.638,59.02795 -349.44345,31.63302 -406.6035,-1.91016 -1.63668,-0.96045 -3.06035,-1.41421 -4.29492,-1.4668 z"
             inkscape:label="Shadow2" />
          <path
             id="path496"
             style="display:none;opacity:0.35;fill:url(#linearGradient63392);fill-opacity:1;stroke-width:5.44959;stroke-linecap:round;stroke-linejoin:round"
             d="M 640.48809,638.20696 C 605.74923,525.36932 789.9375,445.46094 789.9375,445.46094 c 0,0 -337.83271,135.62247 -337.13672,381.46484 5.1469,-75.7614 46.48336,-112.89537 57.47656,-124.86914 11.07772,-9.72185 23.04427,-17.53769 35.6875,-23.7793 7.31511,-6.61092 15.57916,-12.94787 25.11719,-18.88672 26.99232,-16.80676 49.5516,-18.82078 69.40606,-21.18366 z"
             sodipodi:nodetypes="cccccsc"
             inkscape:label="Shadow1" />
        </g>
        <path
           id="path500"
           style="display:inline;opacity:0.45;fill:url(#linearGradient1689);fill-opacity:1;stroke-width:5.44959;stroke-linecap:round;stroke-linejoin:round"
           inkscape:label="Highlight"
           d="m 714.27646,308.17954 c -111.2345,-4.36121 -224.06892,31.54144 -309.13923,104.13287 -96.00099,77.0186 -155.80522,198.58796 -153.413,322.11075 64.35247,-240.16668 270.6427,-363.49503 452.57882,-363.49503 181.93612,0 250.22508,89.18866 345.08845,160.47557 C 997.76968,439.62063 920.80757,354.30852 816.46234,324.60496 783.31333,314.67206 748.83513,309.42273 714.27646,308.17954 Z"
           sodipodi:nodetypes="ccczccc"
           transform="matrix(0.2871973,0,0,0.2871973,56.93009,83.427214)" />
      </g>
    </g>
  </g>
</svg>
